<svg id="Capa_1" xmlns="http://www.w3.org/2000/svg" viewBox="0 0 250 250" xmlns:xlink="http://www.w3.org/1999/xlink"><title>Wazuh logo</title><defs></defs><rect fill="#00A9E5" width="250" height="250"/><path fill="white" d="M163.33,44.57,143.58,86.14H107.36L85.73,44.57l-15,52.8L50,121l46.55,42.7,18.11,41.77h20.7l17.13-41,47.51-43L178.83,98.11ZM140.16,156.05a4.42,4.42,0,0,1-1.79,1.5A5.8,5.8,0,0,1,136,158a5.71,5.71,0,0,1-2.3-.49,4.32,4.32,0,0,1-1.73-1.5l-7-10.58-7,10.58a4.48,4.48,0,0,1-1.74,1.5,5.72,5.72,0,0,1-2.31.49,4.67,4.67,0,0,1-4.12-2L74,122.65h9.93l30.28,26.54,6.06-9.45h9.53l6.54,9.45L167,121.52h9.07Z"/></svg>